PathFileType	4	(X/Y/Z)	Patient4_TMGait_0pt5_02_right_20.trc.trc
DataRate	CameraRate	NumFrames	NumMarkers	Units	OrigDataRate	OrigDataStartFrame	OrigNumFrames
76.086956521739	76.086956521739	4	33	mm	76.086956521739	124	       141
Frame#	Time	Sacral			L.Shoulder			Chest			R.Shoulder			Neck			R.ASIS			L.ASIS			R.Thigh.Superior			R.Thigh.Lateral			R.Thigh.Inferior			R.Patella			L.Thigh.Superior			L.Thigh.Lateral			L.Thigh.Inferior			L.Patella			L.Shank.Superior			L.Shank.Lateral			L.Shank.Inferior			R.Shank.Superior			R.Shank.Lateral			R.Shank.Inferior			R.Heel			R.Midfoot.Superior			R.Midfoot.Lateral			R.Toe			L.Heel			L.Midfoot.Lateral			L.Midfoot.Superior			L.Toe			L.Elbow			L.Wrist			R.Elbow			R.Wrist			
		X1	Y1	Z1	X2	Y2	Z2	X3	Y3	Z3	X4	Y4	Z4	X5	Y5	Z5	X6	Y6	Z6	X7	Y7	Z7	X8	Y8	Z8	X9	Y9	Z9	X10	Y10	Z10	X11	Y11	Z11	X12	Y12	Z12	X13	Y13	Z13	X14	Y14	Z14	X15	Y15	Z15	X16	Y16	Z16	X17	Y17	Z17	X18	Y18	Z18	X19	Y19	Z19	X20	Y20	Z20	X21	Y21	Z21	X22	Y22	Z22	X23	Y23	Z23	X24	Y24	Z24	X25	Y25	Z25	X26	Y26	Z26	X27	Y27	Z27	X28	Y28	Z28	X29	Y29	Z29	X30	Y30	Z30	X31	Y31	Z31	X32	Y32	Z32	X33	Y33	Z33	

124	27.566571428571	589.084103714359	1003.210473327870	462.775640152191	814.198628653636	1428.069214917530	316.563034295535	889.884987503525	1344.370908212070	485.724000083757	788.505580568166	1417.077160684281	651.818880345868	800.002690470061	1482.646350307540	468.876939346835	802.007888954012	930.577894484568	600.637915907371	814.553904724490	947.883104850532	326.599569121785	875.608544661610	756.461950880426	575.048885613898	820.875605659110	636.080957224892	639.350216169882	911.782845969405	597.683390788421	563.030041640257	937.569984673449	512.169306501625	574.690691884402	826.335056423514	722.897733601671	363.326743963649	725.883238362118	622.067361057130	293.433897807430	784.038314485157	532.219040069807	367.843077649920	770.074242818731	459.946725305029	377.000712455859	726.674573865737	393.732419955524	364.039327717872	619.721235328307	302.237369976464	302.241805591476	633.343192262384	183.346444301223	375.010181322655	918.559685662691	421.360854731643	583.906201937656	860.394990780045	312.289208850095	649.557923063247	918.621619969373	221.757172701471	593.521900720863	808.246216689707	45.574648055860	569.803457038338	976.919969274132	106.813113902323	602.962224032121	894.410742752052	38.885497728326	640.956184225766	1098.903789912958	60.290253873369	623.757084536812	476.118173474978	42.772432232312	398.125292518846	555.899731149784	37.537789006043	324.159889340667	639.275769231106	95.197094353876	357.466981814133	767.503353681248	38.602741946091	335.957167302066	753.785032316877	1094.533191211581	165.306989461951	927.430948689178	907.280942508465	217.342144287136	657.927024182005	1084.834332347425	728.224721566685	655.703483738082	825.309815564633	751.871438802403	
125	27.579714285714	589.888555758307	1001.724590363506	465.864775456354	812.033710821838	1427.782321670682	320.511839465858	889.089559513495	1344.045708379445	489.100970769540	788.010350103078	1415.455412107191	655.913592638766	798.532515208711	1481.928957526153	473.173322230531	803.587921917006	929.233592760862	602.810312016327	815.403842088375	947.584612598261	329.000686765083	877.385293372860	754.043657714441	576.856773728857	820.916453565255	634.005797321824	639.848693405963	911.864250525812	595.445901557061	563.739417456826	936.164774597902	508.916925213017	574.423224369464	827.451387324411	721.921998992462	364.897448681654	726.623918514025	621.020661005046	295.768994281220	785.359318091671	530.839053667131	369.588485917712	771.444754819453	457.817771845062	378.389222903273	726.284601099074	392.432454787585	365.475841268348	617.513823804674	303.198218556414	303.416915956020	629.045504092168	183.664049997246	375.349155975071	915.976107539738	417.963241783643	583.544331122429	856.325510393747	309.976983261080	649.694955862113	911.723473113906	218.311550752589	592.694572339502	796.993536359087	44.831039117060	570.708490297536	967.161714751858	103.325541669289	601.608055057498	883.665814258713	37.657714130059	641.220533725860	1088.770853808599	54.622281512600	621.615099670971	469.764829842142	45.205454375613	397.914341751153	549.540217978661	38.800595728880	324.103282759258	633.554631930702	95.553702454745	357.302114940178	761.019599893904	38.404327268943	335.860447710041	751.286127491162	1094.014056880519	169.355918263506	925.897358085773	907.105967069985	219.781281046281	662.406236223211	1080.892399794940	731.473044914692	665.412443743367	820.896992563774	752.774485535265	
126	27.592857142857	590.553187492067	1000.560188692421	469.018970829205	810.000118791927	1427.719588484904	324.547411138939	888.354786809845	1343.902872821195	492.561415608920	787.638733132658	1414.096027828546	660.069467038685	797.201711462746	1481.451610691880	477.573638272086	805.071577417457	928.272584878287	605.127899168349	816.100102194052	947.533054076449	331.532100823641	879.033578342299	752.048871497077	578.554745229949	821.209504110255	632.488956670843	640.415839722871	911.900578448471	593.719500746213	564.203771978180	934.992069554547	506.256823572271	574.107889226529	828.996167754583	721.372648765267	366.639930456983	728.098082020769	620.091053439339	298.294737963777	787.803151564381	529.714482306657	371.475473135058	774.090354961417	455.732469890058	379.760574476996	726.952072862346	391.264178774299	366.968062183266	616.125576539205	304.670502650443	304.733324647260	625.390327686815	184.427949838208	375.670081803311	913.662839418415	415.143425607057	583.188593547673	852.727057484031	308.103689326035	649.817011825465	905.378539298761	215.427404865368	591.824073594488	786.568327280294	44.334104156553	571.436596787822	957.995723593012	100.593839617149	600.268078561452	873.690664865221	36.872530698335	641.400233458758	1079.359748567101	50.000100867141	619.737346253564	463.695354585063	48.751973019876	397.761840178904	543.328622865628	40.725732733718	324.078457065858	628.239283522905	96.118578872785	357.084282814877	754.492178373078	38.136521255294	335.763927033799	748.694403258938	1093.758841412707	173.488459609486	923.810222360083	906.666500520539	222.006025729330	667.426182930610	1077.183276267048	735.024107605482	676.306490422803	816.846088914670	754.079078623383	
127	27.606000000000	591.045419511951	999.753709426522	472.228980848007	808.124595986524	1427.919221495931	328.616446056199	887.658407541087	1343.966093356213	496.063648947666	787.363748517589	1413.067269779854	664.231585555715	796.007954064087	1481.248245426936	482.013175308025	806.394405214661	927.733330215924	607.607270521080	816.584292192208	947.749604163476	334.182942998919	880.406963811465	750.540520945788	580.184744557814	821.654746756789	631.550064605398	641.169780539555	911.793936921768	592.512109518887	564.561640272418	933.922293552154	504.225612567133	573.924252082694	830.945245344039	721.318483553681	368.591373242364	730.401322099475	619.317441852169	300.975346816436	791.478379708096	528.918588793904	373.486442832787	778.112237258932	453.773958372524	381.076293228692	728.808448768717	390.283021897820	368.484798245172	615.689876020786	306.733233064298	306.203866055648	622.522096687050	185.732824486779	375.994666420499	911.546894364704	412.952391800882	582.988534589904	849.555544314893	306.687684890878	650.011356356074	899.673364691716	213.175878613407	591.055412626101	777.251604620497	44.061931519379	571.983840653717	949.655108875395	98.661465090229	599.102579921808	864.734885628189	36.468521071191	641.518780839119	1070.882762981720	46.512949121089	618.265106483724	458.044300484797	53.625967211085	397.734226046605	537.339755961634	43.488230162187	324.127796745606	623.431369117386	96.953194821336	356.845507275451	747.907711805373	37.782259099868	335.680742947584	746.095626321245	1093.801593376383	177.685995585814	921.176707891625	905.947924159803	224.052138038447	672.885397256555	1073.826637882397	738.842562887750	688.294667987036	813.346418861527	755.797732471691	
